<svg width="400" height="350" viewBox="0 0 400 350" fill="none" xmlns="http://www.w3.org/2000/svg">
<g clip-path="url(#clip0_1401_688)">
<path d="M309.686 31.2187L205.269 0.754098C201.851 -0.242251 198.155 -0.242251 194.736 0.754098L90.3027 31.2187C73.7042 36.0465 59.2663 45.3281 49.0399 57.7449C38.8136 70.1617 33.3188 85.0824 33.336 100.387V175.01C33.336 285.304 186.669 346.219 193.236 348.756C195.366 349.584 197.672 350.012 200.003 350.012C202.334 350.012 204.639 349.584 206.769 348.756C213.336 346.219 366.669 285.304 366.669 175.01V100.387C366.685 85.0806 361.188 70.1586 350.959 57.7415C340.729 45.3245 326.288 36.044 309.686 31.2187V31.2187Z" fill="black"/>
</g>
<path d="M140.501 16.5C109.701 25.5 81.9009 34 78.8009 35.4C63.4009 42 47.9009 56.3 41.0009 70.4C33.6009 85.2 33.7009 84.6 33.2009 132.5C32.7009 189.1 34.0009 200.7 43.4009 222.9C46.8009 231 57.5009 250 58.6009 250C59.5009 250 63.8009 246.9 81.5009 233.6C112.401 210.5 133.801 192.2 151.501 173.9C169.201 155.6 174.601 146.9 180.901 126.5C188.401 102.3 194.001 68.6 198.501 21.6C200.401 0.999996 200.401 -3.72529e-06 198.301 0.0999963C197.301 0.0999963 171.301 7.5 140.501 16.5Z" fill="white"/>
<path d="M209.402 7.19969C209.702 10.0997 210.202 16.4997 210.502 21.4997C211.002 29.4997 211.702 36.2997 213.502 51.9997C216.702 79.6997 223.202 102.7 229.902 109.7C237.802 118 267.102 110 314.202 86.4997C327.102 79.9997 344.502 70.8997 352.302 66.4997L356.102 64.2997L352.202 59.3997C344.102 49.0997 333.002 40.5997 320.402 34.9997C317.702 33.7997 292.302 26.0997 264.002 17.8997C235.702 9.69969 211.702 2.69968 210.702 2.39968C209.002 1.89968 208.902 2.29968 209.402 7.19969Z" fill="white"/>
<path d="M343.501 81.2C285.501 123 246.601 157.9 233.501 179.6C219.601 202.7 208.001 263.9 203.401 338.7L202.701 350L207.601 348.3C216.601 345.3 253.301 326.2 266.701 317.6C319.301 284 351.701 246.2 362.601 205.5C366.501 190.8 367.201 179.1 366.801 132.5C366.401 96.4 366.101 88.6 364.701 84C362.401 76.3 359.901 71 358.601 71C358.001 71.1 351.201 75.6 343.501 81.2Z" fill="white"/>
<path d="M149.501 219.4C132.501 223.9 107.001 234.6 79.0013 249.2C71.6013 253.1 65.2013 256.4 64.7013 256.7C62.9013 257.8 80.9013 277.3 94.4013 288.9C113.001 304.8 132.801 318.3 156.501 331.2C169.501 338.3 189.001 347.5 193.501 348.6L196.301 349.3L195.601 337.4C192.001 273.5 186.101 237.5 177.001 223.8C172.001 216.3 165.401 215.3 149.501 219.4Z" fill="white"/>
<defs>
<clipPath id="clip0_1401_688">
<rect width="400" height="350" fill="white"/>
</clipPath>
</defs>
</svg>
